<mxfile host="app.diagrams.net" modified="2021-09-15T19:15:15.081Z" agent="5.0 (Windows NT 10.0; Win64; x64) AppleWebKit/537.36 (KHTML, like Gecko) Chrome/92.0.4515.131 Safari/537.36 OPR/78.0.4093.186" etag="SLDhcTEo7G0VVV9waHPy" version="15.2.7" type="github">
  <diagram id="fhgRlPGv0iziKAK5T5gu" name="Page-1">
    <mxGraphModel dx="2205" dy="805" grid="1" gridSize="10" guides="1" tooltips="1" connect="1" arrows="1" fold="1" page="1" pageScale="1" pageWidth="827" pageHeight="1169" math="0" shadow="0">
      <root>
        <mxCell id="0" />
        <mxCell id="1" parent="0" />
        <mxCell id="qDP8li1R9nJsc22dhzf8-1" value=" С_FuelСalculationAbstract" style="swimlane;fontStyle=1;align=center;verticalAlign=top;childLayout=stackLayout;horizontal=1;startSize=26;horizontalStack=0;resizeParent=1;resizeParentMax=0;resizeLast=0;collapsible=1;marginBottom=0;" parent="1" vertex="1">
          <mxGeometry x="240" y="200" width="320" height="164" as="geometry" />
        </mxCell>
        <mxCell id="qDP8li1R9nJsc22dhzf8-2" value="#   km: float" style="text;strokeColor=#d6b656;fillColor=#fff2cc;align=left;verticalAlign=top;spacingLeft=4;spacingRight=4;overflow=hidden;rotatable=0;points=[[0,0.5],[1,0.5]];portConstraint=eastwest;" parent="qDP8li1R9nJsc22dhzf8-1" vertex="1">
          <mxGeometry y="26" width="320" height="26" as="geometry" />
        </mxCell>
        <mxCell id="qDP8li1R9nJsc22dhzf8-6" value="#   liter: float" style="text;strokeColor=#d6b656;fillColor=#fff2cc;align=left;verticalAlign=top;spacingLeft=4;spacingRight=4;overflow=hidden;rotatable=0;points=[[0,0.5],[1,0.5]];portConstraint=eastwest;" parent="qDP8li1R9nJsc22dhzf8-1" vertex="1">
          <mxGeometry y="52" width="320" height="26" as="geometry" />
        </mxCell>
        <mxCell id="qDP8li1R9nJsc22dhzf8-5" value="#   price: float" style="text;strokeColor=#d6b656;fillColor=#fff2cc;align=left;verticalAlign=top;spacingLeft=4;spacingRight=4;overflow=hidden;rotatable=0;points=[[0,0.5],[1,0.5]];portConstraint=eastwest;" parent="qDP8li1R9nJsc22dhzf8-1" vertex="1">
          <mxGeometry y="78" width="320" height="26" as="geometry" />
        </mxCell>
        <mxCell id="qDP8li1R9nJsc22dhzf8-3" value="" style="line;strokeWidth=1;fillColor=none;align=left;verticalAlign=middle;spacingTop=-1;spacingLeft=3;spacingRight=3;rotatable=0;labelPosition=right;points=[];portConstraint=eastwest;" parent="qDP8li1R9nJsc22dhzf8-1" vertex="1">
          <mxGeometry y="104" width="320" height="8" as="geometry" />
        </mxCell>
        <mxCell id="qDP8li1R9nJsc22dhzf8-4" value="+ С_FuelСalculation():" style="text;strokeColor=#d79b00;fillColor=#ffe6cc;align=left;verticalAlign=top;spacingLeft=4;spacingRight=4;overflow=hidden;rotatable=0;points=[[0,0.5],[1,0.5]];portConstraint=eastwest;" parent="qDP8li1R9nJsc22dhzf8-1" vertex="1">
          <mxGeometry y="112" width="320" height="26" as="geometry" />
        </mxCell>
        <mxCell id="qDP8li1R9nJsc22dhzf8-8" value="+ virtual FuelConsumptionAndGetPrice(): void " style="text;strokeColor=#6c8ebf;fillColor=#dae8fc;align=left;verticalAlign=top;spacingLeft=4;spacingRight=4;overflow=hidden;rotatable=0;points=[[0,0.5],[1,0.5]];portConstraint=eastwest;" parent="qDP8li1R9nJsc22dhzf8-1" vertex="1">
          <mxGeometry y="138" width="320" height="26" as="geometry" />
        </mxCell>
        <mxCell id="qDP8li1R9nJsc22dhzf8-9" value="С_FuelСalculationKmAndPrice" style="swimlane;fontStyle=1;align=center;verticalAlign=top;childLayout=stackLayout;horizontal=1;startSize=26;horizontalStack=0;resizeParent=1;resizeParentMax=0;resizeLast=0;collapsible=1;marginBottom=0;" parent="1" vertex="1">
          <mxGeometry x="600" y="400" width="440" height="86" as="geometry" />
        </mxCell>
        <mxCell id="qDP8li1R9nJsc22dhzf8-13" value="" style="line;strokeWidth=1;fillColor=none;align=left;verticalAlign=middle;spacingTop=-1;spacingLeft=3;spacingRight=3;rotatable=0;labelPosition=right;points=[];portConstraint=eastwest;" parent="qDP8li1R9nJsc22dhzf8-9" vertex="1">
          <mxGeometry y="26" width="440" height="8" as="geometry" />
        </mxCell>
        <mxCell id="qDP8li1R9nJsc22dhzf8-16" value="+ virtual FuelConsumption(): void override" style="text;strokeColor=#6c8ebf;fillColor=#dae8fc;align=left;verticalAlign=top;spacingLeft=4;spacingRight=4;overflow=hidden;rotatable=0;points=[[0,0.5],[1,0.5]];portConstraint=eastwest;" parent="qDP8li1R9nJsc22dhzf8-9" vertex="1">
          <mxGeometry y="34" width="440" height="26" as="geometry" />
        </mxCell>
        <mxCell id="qDP8li1R9nJsc22dhzf8-17" value="+ operator &lt;&lt; (const С_FuelСalculationDiesel): С_FuelСalculationDiesel" style="text;strokeColor=#82b366;fillColor=#d5e8d4;align=left;verticalAlign=top;spacingLeft=4;spacingRight=4;overflow=hidden;rotatable=0;points=[[0,0.5],[1,0.5]];portConstraint=eastwest;" parent="qDP8li1R9nJsc22dhzf8-9" vertex="1">
          <mxGeometry y="60" width="440" height="26" as="geometry" />
        </mxCell>
        <mxCell id="qDP8li1R9nJsc22dhzf8-18" value="С_FuelСalculationLiterAndPrice" style="swimlane;fontStyle=1;align=center;verticalAlign=top;childLayout=stackLayout;horizontal=1;startSize=26;horizontalStack=0;resizeParent=1;resizeParentMax=0;resizeLast=0;collapsible=1;marginBottom=0;" parent="1" vertex="1">
          <mxGeometry x="-240" y="400" width="440" height="86" as="geometry" />
        </mxCell>
        <mxCell id="qDP8li1R9nJsc22dhzf8-19" value="" style="line;strokeWidth=1;fillColor=none;align=left;verticalAlign=middle;spacingTop=-1;spacingLeft=3;spacingRight=3;rotatable=0;labelPosition=right;points=[];portConstraint=eastwest;" parent="qDP8li1R9nJsc22dhzf8-18" vertex="1">
          <mxGeometry y="26" width="440" height="8" as="geometry" />
        </mxCell>
        <mxCell id="qDP8li1R9nJsc22dhzf8-20" value="+ virtual FuelConsumption(): void override" style="text;strokeColor=#6c8ebf;fillColor=#dae8fc;align=left;verticalAlign=top;spacingLeft=4;spacingRight=4;overflow=hidden;rotatable=0;points=[[0,0.5],[1,0.5]];portConstraint=eastwest;" parent="qDP8li1R9nJsc22dhzf8-18" vertex="1">
          <mxGeometry y="34" width="440" height="26" as="geometry" />
        </mxCell>
        <mxCell id="qDP8li1R9nJsc22dhzf8-21" value="+ operator &lt;&lt; (const С_FuelСalculationPrice): СFuelСalculationPrice" style="text;strokeColor=#82b366;fillColor=#d5e8d4;align=left;verticalAlign=top;spacingLeft=4;spacingRight=4;overflow=hidden;rotatable=0;points=[[0,0.5],[1,0.5]];portConstraint=eastwest;" parent="qDP8li1R9nJsc22dhzf8-18" vertex="1">
          <mxGeometry y="60" width="440" height="26" as="geometry" />
        </mxCell>
        <mxCell id="qDP8li1R9nJsc22dhzf8-22" value="Extends" style="endArrow=block;endSize=16;endFill=0;html=1;exitX=0.5;exitY=0;exitDx=0;exitDy=0;" parent="1" source="qDP8li1R9nJsc22dhzf8-18" edge="1">
          <mxGeometry width="160" relative="1" as="geometry">
            <mxPoint x="-30" y="280" as="sourcePoint" />
            <mxPoint x="242" y="210" as="targetPoint" />
            <Array as="points">
              <mxPoint x="-20" y="210" />
            </Array>
          </mxGeometry>
        </mxCell>
        <mxCell id="qDP8li1R9nJsc22dhzf8-23" value="Extends" style="endArrow=block;endSize=16;endFill=0;html=1;exitX=0.5;exitY=0;exitDx=0;exitDy=0;entryX=1;entryY=0.053;entryDx=0;entryDy=0;entryPerimeter=0;" parent="1" target="qDP8li1R9nJsc22dhzf8-1" edge="1">
          <mxGeometry width="160" relative="1" as="geometry">
            <mxPoint x="827" y="400" as="sourcePoint" />
            <mxPoint x="1089" y="210" as="targetPoint" />
            <Array as="points">
              <mxPoint x="827" y="210" />
            </Array>
          </mxGeometry>
        </mxCell>
        <mxCell id="UUNzrEe97q-2ZJHBDRM0-1" value="Класс является наследником и выполняет просчёт: вводите: &quot;км&quot;, выводит: литраж и цену&amp;nbsp;" style="shape=note;whiteSpace=wrap;html=1;backgroundOutline=1;darkOpacity=0.05;" vertex="1" parent="1">
          <mxGeometry x="-240" y="280" width="200" height="80" as="geometry" />
        </mxCell>
        <mxCell id="UUNzrEe97q-2ZJHBDRM0-2" value="" style="endArrow=none;dashed=1;html=1;exitX=0.181;exitY=0.001;exitDx=0;exitDy=0;exitPerimeter=0;entryX=0.401;entryY=0.993;entryDx=0;entryDy=0;entryPerimeter=0;" edge="1" parent="1" source="qDP8li1R9nJsc22dhzf8-18" target="UUNzrEe97q-2ZJHBDRM0-1">
          <mxGeometry width="50" height="50" relative="1" as="geometry">
            <mxPoint x="-60" y="370" as="sourcePoint" />
            <mxPoint x="-10" y="320" as="targetPoint" />
          </mxGeometry>
        </mxCell>
        <mxCell id="UUNzrEe97q-2ZJHBDRM0-3" value="Класс является наследником и выполняет просчёт: вводите: &quot;литраж&quot;, выводит: км и цену&amp;nbsp;" style="shape=note;whiteSpace=wrap;html=1;backgroundOutline=1;darkOpacity=0.05;" vertex="1" parent="1">
          <mxGeometry x="850" y="280" width="200" height="80" as="geometry" />
        </mxCell>
        <mxCell id="UUNzrEe97q-2ZJHBDRM0-4" value="" style="endArrow=none;dashed=1;html=1;exitX=0.75;exitY=0;exitDx=0;exitDy=0;entryX=0.401;entryY=0.993;entryDx=0;entryDy=0;entryPerimeter=0;" edge="1" parent="1" target="UUNzrEe97q-2ZJHBDRM0-3" source="qDP8li1R9nJsc22dhzf8-9">
          <mxGeometry width="50" height="50" relative="1" as="geometry">
            <mxPoint x="929.6400000000001" y="400.086" as="sourcePoint" />
            <mxPoint x="1080" y="320" as="targetPoint" />
          </mxGeometry>
        </mxCell>
      </root>
    </mxGraphModel>
  </diagram>
</mxfile>
